<?xml version='1.0' encoding='utf-8'?>
<svg height="145px" viewBox="0 0 25 145" width="25px" xmlns="http://www.w3.org/2000/svg" xmlns:xlink="http://www.w3.org/1999/xlink"><defs><rect height="8.399999999999999" id="cell_image" style="fill:black;stroke:none" width="8.399999999999999" x="1.7999999999999998" y="1.7999999999999998" /></defs><rect height="100%" style="stroke:rgb(127,127,127);fill:rgb(240,240,240)" width="100%" x="0" y="0" /><g transform="translate(.5,.5)"><g id="grids"><g style="stroke:rgb(160,160,160);stroke-width:1"><line x1="0" x2="24" y1="0" y2="0" /><line x1="0" x2="24" y1="24" y2="24" /><line x1="0" x2="24" y1="48" y2="48" /><line x1="0" x2="24" y1="72" y2="72" /><line x1="0" x2="24" y1="96" y2="96" /><line x1="0" x2="24" y1="120" y2="120" /><line x1="0" x2="24" y1="144" y2="144" /><line x1="0" x2="0" y1="0" y2="144" /><line x1="24" x2="24" y1="0" y2="144" /></g><g style="stroke:rgb(160,160,160);stroke-width:1;stroke-dasharray:1,2"><line x1="0" x2="24" y1="12" y2="12" /><line x1="0" x2="24" y1="36" y2="36" /><line x1="0" x2="24" y1="60" y2="60" /><line x1="0" x2="24" y1="84" y2="84" /><line x1="0" x2="24" y1="108" y2="108" /><line x1="0" x2="24" y1="132" y2="132" /><line x1="12" x2="12" y1="0" y2="144" /></g></g><g><use transform="translate(0 12)" xlink:href="#cell_image" /><use transform="translate(12 36)" xlink:href="#cell_image" /><use transform="translate(0 48)" xlink:href="#cell_image" /><use transform="translate(12 72)" xlink:href="#cell_image" /><use transform="translate(12 84)" xlink:href="#cell_image" /><use transform="translate(0 96)" xlink:href="#cell_image" /><use transform="translate(12 108)" xlink:href="#cell_image" /><use transform="translate(12 132)" xlink:href="#cell_image" /></g></g></svg>