<?xml version='1.0' encoding='utf-8'?>
<svg height="49px" viewBox="0 0 145 49" width="145px" xmlns="http://www.w3.org/2000/svg" xmlns:xlink="http://www.w3.org/1999/xlink"><defs><rect height="8.399999999999999" id="cell_image" style="fill:black;stroke:none" width="8.399999999999999" x="1.7999999999999998" y="1.7999999999999998" /></defs><rect height="100%" style="stroke:rgb(127,127,127);fill:rgb(240,240,240)" width="100%" x="0" y="0" /><g transform="translate(.5,.5)"><g id="grids"><g style="stroke:rgb(160,160,160);stroke-width:1"><line x1="0" x2="144" y1="0" y2="0" /><line x1="0" x2="144" y1="24" y2="24" /><line x1="0" x2="144" y1="48" y2="48" /><line x1="0" x2="0" y1="0" y2="48" /><line x1="24" x2="24" y1="0" y2="48" /><line x1="48" x2="48" y1="0" y2="48" /><line x1="72" x2="72" y1="0" y2="48" /><line x1="96" x2="96" y1="0" y2="48" /><line x1="120" x2="120" y1="0" y2="48" /><line x1="144" x2="144" y1="0" y2="48" /></g><g style="stroke:rgb(160,160,160);stroke-width:1;stroke-dasharray:1,2"><line x1="0" x2="144" y1="12" y2="12" /><line x1="0" x2="144" y1="36" y2="36" /><line x1="12" x2="12" y1="0" y2="48" /><line x1="36" x2="36" y1="0" y2="48" /><line x1="60" x2="60" y1="0" y2="48" /><line x1="84" x2="84" y1="0" y2="48" /><line x1="108" x2="108" y1="0" y2="48" /><line x1="132" x2="132" y1="0" y2="48" /></g></g><g><use transform="translate(48 0)" xlink:href="#cell_image" /><use transform="translate(84 0)" xlink:href="#cell_image" /><use transform="translate(120 12)" xlink:href="#cell_image" /><use transform="translate(72 24)" xlink:href="#cell_image" /><use transform="translate(84 24)" xlink:href="#cell_image" /><use transform="translate(12 36)" xlink:href="#cell_image" /><use transform="translate(24 36)" xlink:href="#cell_image" /><use transform="translate(72 36)" xlink:href="#cell_image" /><use transform="translate(84 36)" xlink:href="#cell_image" /></g></g></svg>